# xmcd CD database file
# Copyright (C) 1993-1998 Ti Kan
# 
# Track frame offsets:
#     150
#     14819
#     33852
#     43091
#     54022
#     65273
#     74133
#     87450
#     98716
#     110838
#     122007
# 
# Disc length: 1765 seconds
# 
# Revision: 1
# Processed by: cddbd v1.4b41PL1 Copyright (c) Steve Scherf et al.
# Submitted via: DiscPlay 4.0.4
# 
DISCID=9906e30b
DTITLE=Tammy Wynette - D-I-V-O-R-C-E
DYEAR=1900
DGENRE=
TTITLE0=Gentle On My Mind
TTITLE1=Honey (I Miss You)
TTITLE2=The Legend Of Bonnie and Clyde
TTITLE3=All Night Long
TTITLE4=Sweet Dreams
TTITLE5=Yesterday
TTITLE6=D-I-V-O-R-C-E
TTITLE7=Come On Home
TTITLE8=When There's A Fire In Your Heart
TTITLE9=Kiss Away
TTITLE10=Lonely Street
EXTD=
EXTT0=
EXTT1=
EXTT2=
EXTT3=
EXTT4=
EXTT5=
EXTT6=
EXTT7=
EXTT8=
EXTT9=
EXTT10=
PLAYORDER=
